HIERARCHY
ROOT Hips
{
	OFFSET 0.00000 0.00000 0.00000
	CHANNELS 6 Xposition Yposition Zposition Zrotation Yrotation Xrotation 
	JOINT LHipJoint
	{
		OFFSET 0 0 0
		CHANNELS 3 Zrotation Yrotation Xrotation
		JOINT LeftHip
		{
			OFFSET 1.81638 -1.86202 0.89635
			CHANNELS 3 Zrotation Yrotation Xrotation
			JOINT LeftKnee
			{
				OFFSET 2.63464 -7.23861 0.00000
				CHANNELS 3 Zrotation Yrotation Xrotation
				JOINT LeftAnkle
				{
					OFFSET 2.45871 -6.75336 0.00000
					CHANNELS 3 Zrotation Yrotation Xrotation
					JOINT LeftToe
					{
						OFFSET 0.34235 -0.94059 2.20020
						CHANNELS 3 Zrotation Yrotation Xrotation
						End Site
						{
							OFFSET 0.00000 -0.00000 1.18611
						}
					}
				}
			}
		}
	}
	JOINT RHipJoint
	{
		OFFSET 0 0 0
		CHANNELS 3 Zrotation Yrotation Xrotation
		JOINT RightHip
		{
			OFFSET -1.84405 -1.86203 0.89635
			CHANNELS 3 Zrotation Yrotation Xrotation
			JOINT RightKnee
			{
				OFFSET -2.71067 -7.44751 0.00000
				CHANNELS 3 Zrotation Yrotation Xrotation
				JOINT RightAnkle
				{
					OFFSET -2.47159 -6.79060 0.00000
					CHANNELS 3 Zrotation Yrotation Xrotation
					JOINT RightToe
					{
						OFFSET -0.26223 -0.72048 2.36007
						CHANNELS 3 Zrotation Yrotation Xrotation
						End Site
						{
							OFFSET -0.00000 -0.00000 1.23343
						}
					}
				}
			}
		}
	}
	JOINT lowerback
	{
		OFFSET 0 0 0
		CHANNELS 3 Zrotation Yrotation Xrotation
		JOINT Chest
		{
			OFFSET 0.02089 1.99248 -0.22512
			CHANNELS 3 Zrotation Yrotation Xrotation
			JOINT Chest2
			{
				OFFSET 0.01476 2.01356 -0.03079
				CHANNELS 3 Zrotation Yrotation Xrotation
				JOINT lowerneck
				{
					OFFSET 0 0 0
					CHANNELS 3 Zrotation Yrotation Xrotation
					JOINT Neck
					{
						OFFSET 0.04846 1.65098 0.06663
						CHANNELS 3 Zrotation Yrotation Xrotation
						JOINT Head
						{
							OFFSET -0.06061 1.60634 -0.07565
							CHANNELS 3 Zrotation Yrotation Xrotation
							End Site
							{
								OFFSET -0.02954 1.73562 -0.03642
							}
						}
					}
				}
				JOINT LeftCollar
				{
					OFFSET 0 0 0
					CHANNELS 3 Zrotation Yrotation Xrotation
					JOINT LeftShoulder
					{
						OFFSET 3.45234 1.47051 -0.06993
CHANNELS 3 Zrotation Xrotation Yrotation
						JOINT LeftElbow
						{
OFFSET 0 -5.493130 0.000000
CHANNELS 3 Zrotation Xrotation Yrotation
							JOINT LeftWrist
							{
OFFSET 0 -3.290370 0.000000
CHANNELS 3 Zrotation Xrotation Yrotation
								JOINT lhand
								{
									OFFSET 0 0 0
CHANNELS 3 Zrotation Xrotation Yrotation
									JOINT LFingers
									{
OFFSET 0 -0.729660 0.000000
CHANNELS 3 Zrotation Xrotation Yrotation
										End Site
										{
OFFSET 0 -0.588270 0.000000
										}
									}
								}
								JOINT LThumb
								{
OFFSET 0 0.000000 0.000000
CHANNELS 3 Zrotation Xrotation Yrotation
									End Site
									{
OFFSET 0 -0.597250 0.597250
									}
								}
							}
						}
					}
				}
				JOINT RightCollar
				{
					OFFSET 0 0 0
					CHANNELS 3 Zrotation Yrotation Xrotation
					JOINT RightShoulder
					{
						OFFSET -3.41935 1.44327 0.20453
CHANNELS 3 Zrotation Xrotation Yrotation
						JOINT RightElbow
						{
OFFSET 0 -5.236840 0.000000
CHANNELS 3 Zrotation Xrotation Yrotation
							JOINT RightWrist
							{
OFFSET 0 -3.382510 0.000000
CHANNELS 3 Zrotation Xrotation Yrotation
								JOINT rhand
								{
									OFFSET 0 0 0
CHANNELS 3 Zrotation Xrotation Yrotation
									JOINT RFingers
									{
OFFSET 0 -0.691450 0.000000
CHANNELS 3 Zrotation Xrotation Yrotation
										End Site
										{
OFFSET 0 -0.557470 0.000000
										}
									}
								}
								JOINT RThumb
								{
OFFSET 0 0.000000 0.000000
CHANNELS 3 Zrotation Xrotation Yrotation
									End Site
									{
OFFSET 0 -0.565980 0.565980
									}
								}
							}
						}
					}
				}
			}
		}
	}
}
MOTION
Frames: 7
Frame Time: 0.008333333333333333
-31.230432 17.707510 -3.007034 -146.988002 78.016761 -152.897214 0.000000 0.000000 0.000000 -7.120325 -14.455029 -0.917796 1.885334 8.623098 24.623173 1.253673 -10.456691 -20.237353 0.339679 3.745418 10.361537 0.000000 0.000000 0.000000 26.196371 1.094563 12.338556 -0.064214 -1.635062 4.498074 0.761554 -18.265073 -17.610422 -0.001255 0.221128 -0.607619 1.256630 0.888814 12.109856 1.241022 1.784061 8.236175 0.407479 1.122368 1.828802 1.505165 -2.713700 -8.249565 3.435477 -3.702759 -1.444566 0.692078 -1.753848 0.966481 0.000000 0.000000 0.000000 27.926151 9.073492 -12.047290 25.402863 -36.612535 8.529172 7.432111 4.715428 0.592231 0.000000 0.000000 0.000000 -7.125000 0.000000 0.000000 -14.861794 29.221290 -5.896571 0.000000 0.000000 0.000000 -37.261085 8.619817 9.679190 -32.065922 -42.596869 -12.786437 -18.478656 -7.043618 21.600157 0.000000 0.000000 0.000000 7.125000 0.000000 0.000000 10.546898 52.333808 -1.921362
-31.262154 17.706658 -2.992516 -144.030062 78.796524 -150.177292 0.000000 0.000000 0.000000 -7.030741 -14.051622 -0.427189 1.851222 8.548967 24.394425 1.292949 -9.830139 -20.463697 0.323223 3.654122 10.105561 0.000000 0.000000 0.000000 26.433865 2.062603 12.365275 -0.083056 -1.858619 5.115102 0.711707 -18.176826 -18.148806 -0.002922 -0.328529 0.902735 0.959521 0.872257 12.156551 1.206273 1.727102 8.208690 0.541809 1.079155 1.767185 1.474366 -2.290075 -8.250851 3.606889 -3.141039 -1.336054 0.768640 -1.467855 1.000202 0.000000 0.000000 0.000000 28.487914 4.486808 -21.243590 26.553749 -37.749163 9.225066 7.721935 3.292755 0.698792 0.000000 0.000000 0.000000 -7.125000 0.000000 0.000000 -14.625768 29.122005 -5.832840 0.000000 0.000000 0.000000 -38.774790 1.825192 18.963075 -35.379645 -45.074757 -15.083734 -18.476669 -7.297724 21.259223 0.000000 0.000000 0.000000 7.125000 0.000000 0.000000 10.420276 51.987635 -1.808989
-31.292035 17.702958 -2.983244 -139.894725 79.644708 -146.371152 0.000000 0.000000 0.000000 -6.926109 -13.559690 0.197995 1.823155 8.487521 24.204927 1.349143 -9.168540 -20.833414 0.312419 3.593396 9.935379 0.000000 0.000000 0.000000 26.718054 3.096149 12.676298 -0.093863 -1.975904 5.439009 0.674948 -18.132167 -18.573042 -0.020648 -0.918116 2.523473 0.760247 0.868817 12.100936 1.222691 1.699460 8.270933 0.676110 1.056214 1.857105 1.499762 -1.839718 -8.114699 3.704993 -2.540403 -1.327882 0.815923 -1.167290 0.974343 0.000000 0.000000 0.000000 28.511823 -0.543342 -30.011437 27.904472 -39.026267 10.064206 7.663259 1.458776 0.181538 0.000000 0.000000 0.000000 -7.125000 0.000000 0.000000 -14.744826 29.625831 -5.699752 0.000000 0.000000 0.000000 -39.929031 -5.524093 27.183643 -38.715412 -47.283904 -17.491338 -18.688788 -7.343636 21.384862 0.000000 0.000000 0.000000 7.125000 0.000000 0.000000 10.257095 52.152186 -1.821685
-31.321391 17.696364 -2.977923 -134.669564 80.461515 -141.534155 0.000000 0.000000 0.000000 -6.812041 -13.029317 0.885714 1.802304 8.441531 24.063495 1.413057 -8.497080 -21.279542 0.299218 3.517150 9.721957 0.000000 0.000000 0.000000 27.033608 4.122830 13.139264 -0.100039 -2.039617 5.615265 0.643426 -18.081460 -18.897807 -0.050796 -1.450713 3.989797 0.735469 0.926957 12.079635 1.189751 1.771011 8.329875 0.650388 1.091287 1.930886 1.823285 -1.419393 -7.852277 3.743107 -2.001344 -1.306193 0.792273 -0.900486 0.926256 0.000000 0.000000 0.000000 28.141353 -5.797053 -38.206908 29.606549 -40.551517 11.153757 7.458832 -0.572131 -0.650137 0.000000 0.000000 0.000000 -7.125000 0.000000 0.000000 -15.026806 30.432347 -5.515602 0.000000 0.000000 0.000000 -40.350100 -12.929132 34.198106 -41.846440 -49.122515 -19.825596 -18.987296 -7.239709 21.749796 0.000000 0.000000 0.000000 7.125000 0.000000 0.000000 10.097664 52.575669 -1.898237
-31.348979 17.687208 -2.974689 -128.701352 81.151557 -135.991800 0.000000 0.000000 0.000000 -6.696252 -12.523473 1.595080 1.788463 8.410715 23.968698 1.474752 -7.848454 -21.727641 0.282927 3.420749 9.452489 0.000000 0.000000 0.000000 27.369466 5.075805 13.662236 -0.105049 -2.089701 5.753559 0.619164 -18.034921 -19.126188 -0.084180 -1.870700 5.148519 0.894252 1.039319 12.134181 1.032001 1.932885 8.365955 0.380678 1.182228 1.949345 2.532043 -1.065417 -7.511750 3.824686 -1.578918 -1.214719 0.713311 -0.690373 0.885645 0.000000 0.000000 0.000000 27.434217 -10.956455 -45.529037 31.737958 -42.336292 12.564326 7.345528 -2.319542 -0.957130 0.000000 0.000000 0.000000 -7.125000 0.000000 0.000000 -15.162203 30.728431 -5.457105 0.000000 0.000000 0.000000 -39.856551 -19.868680 40.123526 -44.921313 -50.728659 -22.178124 -19.311183 -7.163123 21.939971 0.000000 0.000000 0.000000 7.125000 0.000000 0.000000 9.846124 52.827345 -1.911161
-31.370912 17.677004 -2.971295 -122.502978 81.667815 -130.211396 0.000000 0.000000 0.000000 -6.585674 -12.084631 2.273165 1.781023 8.394204 23.917871 1.526841 -7.231661 -22.120318 0.265819 3.316880 9.162225 0.000000 0.000000 0.000000 27.704456 5.900151 14.185815 -0.108980 -2.128246 5.860222 0.602924 -18.000310 -19.269951 -0.115429 -2.189688 6.030129 1.143236 1.173977 12.255881 0.765345 2.134348 8.374375 -0.059232 1.299185 1.912279 3.455563 -0.812855 -7.189000 4.061246 -1.305460 -1.028614 0.642044 -0.547553 0.881170 0.000000 0.000000 0.000000 26.319112 -15.720765 -51.827540 34.348664 -44.338644 14.357104 7.074208 -3.711984 -1.344336 0.000000 0.000000 0.000000 -7.125000 0.000000 0.000000 -15.434711 31.097376 -5.419776 0.000000 0.000000 0.000000 -38.540767 -25.924964 45.187372 -48.405407 -52.328565 -24.907074 -19.573224 -7.193875 21.878586 0.000000 0.000000 0.000000 7.125000 0.000000 0.000000 9.560399 52.812205 -1.851331
-31.383198 17.668667 -2.965356 -116.664250 81.999553 -124.698536 0.000000 0.000000 0.000000 -6.460504 -11.744620 2.831945 1.778876 8.389422 23.903332 1.569678 -6.682057 -22.456531 0.248266 3.205957 8.852673 0.000000 0.000000 0.000000 28.030235 6.578153 14.639982 -0.110224 -2.140505 5.894236 0.595911 -17.988239 -19.335965 -0.141483 -2.424050 6.679091 1.353608 1.311129 12.361508 0.486297 2.333354 8.340189 -0.491100 1.412242 1.842056 4.322951 -0.694494 -6.890097 4.451256 -1.203047 -0.795245 0.623046 -0.482966 0.899781 0.000000 0.000000 0.000000 24.726125 -19.926345 -57.320416 37.307121 -46.385769 16.463713 6.567765 -5.504378 -1.899531 0.000000 0.000000 0.000000 -7.125000 0.000000 0.000000 -15.921567 31.620258 -5.394231 0.000000 0.000000 0.000000 -36.646981 -30.923065 49.599416 -52.653027 -54.003526 -28.309020 -19.424694 -7.342524 21.673355 0.000000 0.000000 0.000000 7.125000 0.000000 0.000000 9.632249 52.576023 -1.809319
